PathFileType	4	(X/Y/Z)	c:/Users/goper/Files/vsCode/490R/osim_files/C12/C12_ROM.trc
DataRate	CameraRate	NumFrames	NumMarkers	Units                	OrigDataRate	OrigDataStartFrame	OrigNumFrames
120.00	120.00	6	36	mm	120.0	478	1911
                Frame#	Time	LPSIS			LASIS			LTH1			LTH2			LTH3			LTH4			LLFE			LMFE			LSH1			LSH2			LSH3			LSH4			LLMAL			LMMAL			LCAL			LMTP5			LTOE			LMTP1			RPSIS			RASIS			RTH1			RTH2			RTH3			RTH4			RLFE			RMFE			RSH1			RSH2			RSH3			RSH4			RLMAL			RMMAL			RCAL			RMTP1			RTOE			RMTP5		
		X1	Y1	Z1	X2	Y2	Z2	X3	Y3	Z3	X4	Y4	Z4	X5	Y5	Z5	X6	Y6	Z6	X7	Y7	Z7	X8	Y8	Z8	X9	Y9	Z9	X10	Y10	Z10	X11	Y11	Z11	X12	Y12	Z12	X13	Y13	Z13	X14	Y14	Z14	X15	Y15	Z15	X16	Y16	Z16	X17	Y17	Z17	X18	Y18	Z18	X19	Y19	Z19	X20	Y20	Z20	X21	Y21	Z21	X22	Y22	Z22	X23	Y23	Z23	X24	Y24	Z24	X25	Y25	Z25	X26	Y26	Z26	X27	Y27	Z27	X28	Y28	Z28	X29	Y29	Z29	X30	Y30	Z30	X31	Y31	Z31	X32	Y32	Z32	X33	Y33	Z33	X34	Y34	Z34	X35	Y35	Z35	X36	Y36	Z36

478	3.97500	-238.28680	1030.10144	468.17267	-54.12242	994.73474	420.72174	-182.57568	748.70905	349.34058	-180.08241	705.19177	340.38638	-121.07948	750.29205	341.65390	-126.34361	706.11554	333.66025	-159.03775	524.06787	328.90750	-151.54936	482.69934	445.88315	-234.34869	449.75360	288.34708	-241.82701	407.50687	266.88953	-176.02818	434.06369	288.16580	-192.43610	393.04532	269.74484	-281.48911	111.42180	212.87308	-268.41580	100.45367	292.18961	-344.95892	78.89520	246.91101	-158.82669	41.29239	166.30774	-100.89758	68.02557	231.01028	-128.55782	39.42761	275.38263	-256.42206	1048.51331	580.63501	-86.89458	1042.62292	677.65350	-185.31567	763.72949	750.85168	-181.24344	718.36230	745.05914	-122.99532	761.66656	752.25446	-128.55005	714.63837	747.61578	-184.27495	534.70605	718.36731	-171.60739	526.35852	584.80621	-260.46533	444.15247	737.98737	-264.52066	401.95447	746.85339	-199.66409	430.20923	738.26685	-213.57463	390.58713	747.28503	-288.15399	103.71191	718.61810	-263.43201	114.85381	638.53271	-357.29691	67.82884	670.01086	-138.10298	46.94035	648.21155	-100.23782	62.70708	685.91846	-141.52426	38.13091	754.88995
479	3.98333	-235.36063	1029.83423	464.76337	-51.13043	996.09985	417.69330	-178.93839	748.85724	346.26300	-176.24883	705.33435	337.61978	-117.41248	750.21368	339.10547	-122.64851	706.06482	331.34497	-156.39493	523.98743	327.08325	-149.29448	483.08014	444.23474	-232.33952	449.87363	286.92310	-240.10756	407.56317	265.62158	-174.12901	433.85397	286.64407	-190.76094	392.88980	268.45572	-281.32693	111.48566	212.73495	-268.28607	100.56728	292.10242	-344.82672	79.13464	246.94997	-158.82402	41.18333	166.21130	-100.26897	67.62010	230.81067	-128.55692	39.37683	275.35681	-253.91621	1047.55627	577.26794	-84.41348	1042.46631	675.15112	-184.05168	763.64966	747.74719	-180.10495	718.19019	742.12750	-121.83076	761.40002	749.65106	-127.41713	714.30627	745.08313	-183.19727	534.74902	716.32843	-169.82799	525.58313	582.86572	-259.66351	444.58566	736.09344	-263.89554	402.41119	745.14124	-198.81932	430.38550	736.60236	-212.85330	390.82996	745.73645	-288.05869	103.93970	718.25696	-263.24673	114.84811	638.18896	-357.20123	68.04533	669.91089	-138.08553	46.87261	648.17163	-100.17819	62.59568	685.90375	-141.52498	38.15933	754.87329
480	3.99167	-232.81291	1029.40002	461.33551	-48.17441	997.43140	414.63797	-175.42719	748.94775	343.12012	-172.97427	705.25745	334.78271	-113.86925	750.07153	336.44012	-119.16204	705.86292	328.84317	-153.73689	523.89673	325.16913	-146.95284	483.52454	442.54218	-230.43713	449.86362	285.37778	-238.35847	407.51447	264.25015	-172.20157	433.64389	285.11203	-189.05981	392.63666	267.05777	-280.99527	111.52827	212.63274	-268.16718	100.68875	291.99860	-344.68451	79.33526	246.97873	-158.83528	41.05651	166.11813	-100.15377	67.44738	230.69354	-128.45247	39.35765	275.30087	-251.83371	1046.44812	573.86652	-81.93162	1042.30676	672.59235	-182.69293	763.42926	744.64471	-178.86957	717.95734	739.20886	-120.63341	761.07404	746.94629	-126.16416	714.14087	742.52686	-182.02884	534.78473	714.30432	-168.03546	524.82117	580.95209	-258.66577	444.92633	734.23718	-263.01413	402.74228	743.45319	-197.92160	430.63550	734.91443	-212.06371	391.13565	744.24866	-287.86295	104.23454	717.94147	-263.05322	114.83333	637.83020	-357.08084	68.25337	669.82428	-138.05222	46.78915	648.13788	-100.09906	62.50081	685.88812	-141.50984	38.18772	754.86169
481	4.00000	-228.92896	1028.78796	458.35922	-45.45131	998.71088	411.53854	-172.02463	748.87146	340.01852	-169.58492	705.15479	331.86896	-110.30726	749.97076	333.65369	-115.68262	705.63092	326.31860	-151.20215	523.77838	323.22830	-144.72939	483.84998	440.73648	-228.38144	449.92630	283.76981	-236.47527	407.50867	262.82208	-170.26680	433.40164	283.47888	-187.34003	392.38068	265.69241	-280.71899	111.58723	212.52682	-267.96365	100.85983	291.86038	-344.52777	79.52500	246.95773	-158.80225	40.94715	166.02832	-99.99052	67.28390	230.57655	-128.36624	39.31446	275.25256	-247.89645	1045.10254	571.00793	-79.52218	1042.06628	670.01819	-181.47450	763.31232	741.53680	-177.57462	717.81305	736.23596	-119.40285	760.85828	744.17572	-124.89619	713.92694	739.93146	-180.79214	534.78247	712.25970	-166.13632	524.07458	578.96674	-257.66141	445.25742	732.37018	-262.03458	403.15381	741.80792	-196.99142	430.86496	733.30939	-211.13113	391.46832	742.73810	-287.63000	104.51479	717.66687	-262.84573	114.84195	637.51306	-356.94351	68.54334	669.70721	-137.99231	46.73481	648.10150	-99.99136	62.42587	685.86798	-141.46568	38.20210	754.86407
482	4.00833	-226.35495	1028.47412	454.96851	-42.75132	999.95752	408.34464	-168.72185	748.80585	336.87592	-166.28249	705.15833	328.86136	-106.89011	749.84259	330.73071	-112.31950	705.51813	323.58694	-148.61119	523.65198	321.14624	-142.52261	484.31802	438.91367	-226.37747	449.98413	282.09116	-234.71765	407.58328	261.33362	-168.33412	433.19800	281.81439	-185.64665	392.16333	264.23856	-280.33423	111.65208	212.34579	-267.69348	101.08266	291.68494	-344.42844	79.75648	247.01001	-158.77162	40.86074	165.94365	-99.80874	67.14393	230.45518	-128.27095	39.29200	275.21051	-245.61455	1044.14563	567.65894	-77.01090	1041.90576	667.38696	-180.16924	763.14062	738.37927	-176.17850	717.64478	733.35889	-118.09263	760.65698	741.41968	-123.53335	713.74011	737.32855	-179.57176	534.79486	710.30402	-164.27177	523.26886	577.06256	-256.63922	445.65012	730.56390	-261.19260	403.53754	740.23877	-196.00975	431.04013	731.68097	-210.29982	391.72699	741.28027	-287.43210	104.79173	717.38879	-262.62939	114.84632	637.20087	-356.80972	68.83735	669.60480	-137.90474	46.71251	648.07404	-99.90166	62.36274	685.84753	-141.44978	38.18736	754.84955
483	4.01667	-223.66731	1028.00928	451.61450	-40.11177	1001.20203	405.17288	-165.24866	748.93896	333.52185	-163.10831	705.11414	325.85403	-103.65039	749.70099	327.68552	-109.10453	705.32166	320.75333	-146.06099	523.53729	318.97549	-140.38341	484.70807	436.91605	-224.41487	449.99158	280.19434	-232.87448	407.44427	259.69498	-166.33014	432.95389	280.07062	-183.89568	391.89728	262.65027	-279.97473	111.74043	212.14783	-267.54425	101.27770	291.50369	-344.34497	79.91200	246.98363	-158.74586	40.78071	165.86790	-99.65922	67.00797	230.35533	-128.16139	39.27565	275.17282	-243.19112	1042.97803	564.35498	-74.70132	1041.63635	664.79498	-178.82932	762.97278	735.25415	-174.87019	717.46362	730.45569	-116.67216	760.54156	738.68976	-122.19733	713.56708	734.73474	-178.37334	534.75360	708.31409	-162.41179	522.41510	575.22864	-255.64034	445.97882	728.81189	-260.30984	403.96820	738.64624	-194.99506	431.29849	730.10956	-209.40637	391.93295	739.83728	-287.28586	105.05499	717.11871	-262.40622	114.83857	636.89978	-356.69202	69.11410	669.51086	-137.81651	46.67469	648.07263	-99.79873	62.30900	685.81952	-141.43359	38.18377	754.85797
